<svg xmlns="http://www.w3.org/2000/svg" viewBox="0 0 30.41 31.99" fill="none">
  <path fill="#114ef7" fill-rule="evenodd" d="M15.19 11.563a3.6 3.6 0 0 0-2.575 1.071 3.65 3.65 0 0 0-1.067 2.588c0 .977.379 1.896 1.066 2.587l2.606 2.618 2.576-2.587a3.676 3.676 0 0 0 0-5.176l-.03-.03a3.61 3.61 0 0 0-2.576-1.071m.023-6.938c-2.71 0-5.42 1.037-7.483 3.11a10.6 10.6 0 0 0-3.11 7.55 10.6 10.6 0 0 0 3.119 7.528l2.624 2.625 1.593-1.6-2.653-2.668a8.33 8.33 0 0 1-2.436-5.911c0-2.234.865-4.333 2.436-5.912a8.24 8.24 0 0 1 5.88-2.448c2.22 0 4.309.87 5.879 2.449l.03.03c3.243 3.26 3.243 8.563 0 11.823l-2.622 2.636 1.588 1.596 2.637-2.651c4.126-4.149 4.126-10.898 0-15.046a10.52 10.52 0 0 0-7.482-3.111m4.85 27.365-4.849-4.872-4.844 4.867-5.888-5.882A15.2 15.2 0 0 1 0 15.296a15.2 15.2 0 0 1 4.453-10.82c5.939-5.966 15.584-5.966 21.51-.011 5.928 5.954 5.928 15.643 0 21.597z" clip-rule="evenodd"/>
</svg>
