<svg xmlns="http://www.w3.org/2000/svg" width="209" height="32" fill="none">
  <mask id="a" width="31" height="32" x="0" y="0" maskUnits="userSpaceOnUse" style="mask-type:luminance">
    <path fill="#fff" fill-rule="evenodd" d="M0 0h30.409v31.99H0z" clip-rule="evenodd"/>
  </mask>
  <g mask="url(#a)">
    <path fill="#114ef7" fill-rule="evenodd" d="M15.19 11.563a3.6 3.6 0 0 0-2.575 1.071 3.65 3.65 0 0 0-1.067 2.588c0 .977.379 1.896 1.066 2.587l2.606 2.618 2.576-2.587a3.676 3.676 0 0 0 0-5.176l-.03-.03a3.61 3.61 0 0 0-2.576-1.071m.023-6.938c-2.71 0-5.42 1.037-7.483 3.11a10.6 10.6 0 0 0-3.11 7.55 10.6 10.6 0 0 0 3.119 7.528l2.624 2.625 1.593-1.6-2.653-2.668a8.33 8.33 0 0 1-2.436-5.911c0-2.234.865-4.333 2.436-5.912a8.24 8.24 0 0 1 5.88-2.448c2.22 0 4.309.87 5.879 2.449l.03.03c3.243 3.26 3.243 8.563 0 11.823l-2.622 2.636 1.588 1.596 2.637-2.651c4.126-4.149 4.126-10.898 0-15.046a10.52 10.52 0 0 0-7.482-3.111m4.85 27.365-4.849-4.872-4.844 4.867-5.888-5.882A15.2 15.2 0 0 1 0 15.296a15.2 15.2 0 0 1 4.453-10.82c5.939-5.966 15.584-5.966 21.51-.011 5.928 5.954 5.928 15.643 0 21.597z" clip-rule="evenodd"/>
  </g>
  <mask id="b" width="19" height="24" x="37" y="4" maskUnits="userSpaceOnUse" style="mask-type:luminance">
    <path fill="#fff" fill-rule="evenodd" d="M37.876 4.57h17.717v22.52H37.876z" clip-rule="evenodd"/>
  </mask>
  <g mask="url(#b)">
    <path fill="#121212" fill-rule="evenodd" d="M37.875 4.57v22.52h4.75v-7.983h3.468l4.256 7.983h5.243l-4.766-8.747q.105-.046.208-.094 1.826-.857 2.792-2.469.965-1.61.965-3.853 0-2.233-.948-3.888-.949-1.654-2.754-2.562-1.804-.906-4.35-.907zm7.976 10.71h-3.225V8.463h3.203q1.371 0 2.276.401.906.402 1.35 1.17.443.772.444 1.893 0 1.11-.445 1.858-.443.747-1.344 1.12-.9.375-2.259.375" clip-rule="evenodd"/>
  </g>
  <path fill="#121212" fill-rule="evenodd" d="M59.44 26.359q-1.87-1.062-2.88-3.013-1.01-1.952-1.009-4.624 0-2.607 1.01-4.574 1.008-1.968 2.846-3.068 1.837-1.1 4.317-1.1 1.667 0 3.11.534a7 7 0 0 1 2.523 1.6q1.08 1.065 1.684 2.677.603 1.611.603 3.766v1.287H60.17V16.94h7.077q0-1.01-.44-1.791a3.2 3.2 0 0 0-1.211-1.226q-.774-.447-1.794-.446-1.065 0-1.882.489a3.5 3.5 0 0 0-1.278 1.309 3.73 3.73 0 0 0-.472 1.82v2.76q0 1.252.467 2.166.464.914 1.322 1.407.854.495 2.03.495a4.4 4.4 0 0 0 1.425-.22 2.95 2.95 0 0 0 1.109-.66q.46-.44.701-1.078l4.323.287a5.9 5.9 0 0 1-1.344 2.721q-1.014 1.161-2.611 1.803-1.596.645-3.68.644-2.6 0-4.471-1.062M73.15 27.09V10.2h4.454v2.98h.197q.526-1.485 1.756-2.342 1.23-.858 2.94-.858 1.734 0 2.95.863 1.218.864 1.624 2.337h.176q.516-1.45 1.87-2.326 1.355-.874 3.21-.874 2.357 0 3.833 1.5 1.475 1.503 1.475 4.251V27.09h-4.661V16.654q0-1.408-.747-2.11-.746-.705-1.864-.704-1.273 0-1.986.809-.713.807-.713 2.126V27.09h-4.531V16.556q0-1.242-.708-1.98-.707-.735-1.859-.736-.78 0-1.4.39t-.98 1.09q-.363.697-.363 1.631V27.09zM107.412 23.791q1.164 0 1.942-.665.779-.665 1.179-1.82.4-1.154.401-2.628 0-1.473-.401-2.628-.4-1.155-1.179-1.826-.778-.67-1.942-.67-1.173 0-1.969.67-.795.672-1.196 1.826-.4 1.155-.401 2.628 0 1.474.401 2.628.4 1.155 1.196 1.82t1.969.665m-.022 3.629q-2.556 0-4.415-1.094-1.86-1.094-2.869-3.057t-1.01-4.558q0-2.617 1.01-4.58 1.008-1.962 2.869-3.056 1.859-1.095 4.415-1.095t4.415 1.095q1.86 1.094 2.869 3.056 1.01 1.963 1.01 4.58 0 2.596-1.01 4.558-1.01 1.963-2.869 3.057t-4.415 1.094M122.982 6.154h-4.674V10.2h-2.304v3.519h2.304v8.797q-.01 1.66.691 2.749.702 1.087 1.97 1.605 1.267.518 2.956.45a8.3 8.3 0 0 0 1.547-.18q.636-.149.988-.259l-.735-3.486-.241.045q-.117.02-.264.05-.33.06-.658.06a2.2 2.2 0 0 1-.829-.144 1.08 1.08 0 0 1-.554-.5q-.197-.358-.197-1.006v-8.181h3.17V10.2h-3.17zM130.679 26.359q-1.87-1.062-2.879-3.013-1.01-1.952-1.009-4.624 0-2.607 1.009-4.574 1.008-1.968 2.847-3.068 1.837-1.1 4.317-1.1 1.666 0 3.109.534 1.443.533 2.523 1.6 1.081 1.065 1.684 2.677.603 1.611.603 3.766v1.287h-11.475V16.94h7.077q0-1.01-.439-1.791a3.2 3.2 0 0 0-1.212-1.226q-.773-.447-1.794-.446-1.064 0-1.882.489a3.5 3.5 0 0 0-1.277 1.309 3.73 3.73 0 0 0-.473 1.82v2.76q0 1.252.467 2.166a3.34 3.34 0 0 0 1.322 1.407q.855.495 2.029.495.78 0 1.426-.22a2.94 2.94 0 0 0 1.109-.66 2.85 2.85 0 0 0 .701-1.078l4.323.287a5.9 5.9 0 0 1-1.344 2.721q-1.014 1.161-2.611 1.803-1.596.645-3.68.644-2.6 0-4.471-1.062M144.477 27.09V4.57h8.864q2.556 0 4.355.974 1.799.972 2.749 2.693.949 1.721.949 3.964 0 2.244-.966 3.96-.965 1.714-2.792 2.67-1.827.958-4.415.958h-3.994v-3.816h3.225q1.371 0 2.266-.479a3.12 3.12 0 0 0 1.338-1.33q.445-.852.445-1.963 0-1.12-.445-1.963-.444-.84-1.344-1.308-.899-.467-2.282-.467h-3.203V27.09zM168.548 24.176q1.03 0 1.821-.413.79-.412 1.24-1.116.45-.703.449-1.594v-1.792a2.4 2.4 0 0 1-.597.259 9 9 0 0 1-.85.208q-.473.094-.944.165-.472.072-.856.127a5.8 5.8 0 0 0-1.436.384q-.615.264-.955.71t-.34 1.105q0 .957.696 1.457.697.5 1.772.5m-1.339 3.233q-1.612-.001-2.873-.566a4.56 4.56 0 0 1-1.992-1.683q-.729-1.116-.729-2.788 0-1.407.516-2.364a4.17 4.17 0 0 1 1.404-1.539 6.8 6.8 0 0 1 2.024-.88 15 15 0 0 1 2.386-.417q1.47-.154 2.369-.291.9-.139 1.306-.413t.406-.813v-.066q0-1.046-.653-1.617-.652-.572-1.848-.572-1.263 0-2.008.555t-.987 1.391l-4.323-.351q.33-1.54 1.294-2.667.966-1.126 2.497-1.738 1.53-.61 3.549-.61 1.403 0 2.693.33 1.289.33 2.293 1.022a5 5 0 0 1 1.584 1.776q.583 1.084.582 2.59V27.09h-4.432v-2.342h-.131a4.7 4.7 0 0 1-1.087 1.391q-.68.599-1.634.935-.954.335-2.206.335" clip-rule="evenodd"/>
  <mask id="c" width="16" height="19" x="178" y="9" maskUnits="userSpaceOnUse" style="mask-type:luminance">
    <path fill="#fff" fill-rule="evenodd" d="M178.039 9.98h15.15v17.44h-15.15z" clip-rule="evenodd"/>
  </mask>
  <g mask="url(#c)">
    <path fill="#121212" fill-rule="evenodd" d="m192.805 15.016-4.278.264a2.3 2.3 0 0 0-.471-.995 2.6 2.6 0 0 0-.949-.714q-.588-.27-1.4-.27-1.085 0-1.832.457-.745.456-.745 1.214 0 .605.483 1.023.481.419 1.656.67l3.049.617q2.458.505 3.664 1.627 1.207 1.121 1.207 2.947 0 1.66-.97 2.914-.972 1.253-2.655 1.952-1.684.698-3.879.698-3.345 0-5.326-1.402-1.98-1.403-2.32-3.821l4.597-.243q.208 1.023 1.009 1.557t2.052.533q1.228 0 1.98-.478.751-.479.763-1.237-.012-.637-.538-1.05-.528-.412-1.624-.633l-2.918-.583q-2.468-.494-3.67-1.715-1.2-1.22-1.201-3.111 0-1.628.883-2.804.883-1.178 2.491-1.815 1.606-.638 3.768-.638 3.192 0 5.03 1.353t2.144 3.683" clip-rule="evenodd"/>
  </g>
  <mask id="d" width="16" height="19" x="193" y="9" maskUnits="userSpaceOnUse" style="mask-type:luminance">
    <path fill="#fff" fill-rule="evenodd" d="M193.85 9.98H209v17.44h-15.15z" clip-rule="evenodd"/>
  </mask>
  <g mask="url(#d)">
    <path fill="#121212" fill-rule="evenodd" d="m208.616 15.016-4.279.264a2.26 2.26 0 0 0-.471-.995 2.6 2.6 0 0 0-.949-.714q-.587-.27-1.399-.27-1.086 0-1.832.457-.746.456-.746 1.214 0 .605.483 1.023.482.419 1.656.67l3.05.617q2.457.505 3.664 1.627T209 21.856q0 1.66-.971 2.914-.97 1.253-2.655 1.952-1.683.698-3.878.698-3.346 0-5.326-1.402-1.98-1.403-2.32-3.821l4.596-.243q.21 1.023 1.01 1.557t2.051.533q1.228 0 1.981-.478.75-.479.762-1.237-.012-.637-.538-1.05-.527-.412-1.623-.633l-2.918-.583q-2.469-.494-3.67-1.715-1.201-1.22-1.201-3.111-.001-1.628.883-2.804.882-1.178 2.49-1.815 1.607-.638 3.769-.638 3.192 0 5.029 1.353 1.838 1.353 2.145 3.683" clip-rule="evenodd"/>
  </g>
</svg>
